<svg id="B05就餐指数" xmlns="http://www.w3.org/2000/svg" viewBox="0 0 709 709"><defs><style>.cls-1{fill:none;stroke:#9b0000;stroke-linecap:round;stroke-linejoin:round;stroke-width:45px;fill-rule:evenodd;}</style></defs><title>B05就餐指数</title><path class="cls-1" d="M632.87,250.8c0-45.4-36.59-82.19-81.71-82.19"/><path class="cls-1" d="M550.67,167.11c0-44.76-36.07-81.05-80.57-81.05"/><path class="cls-1" d="M75.35,250.58a82,82,0,0,1,82-81.94"/><path class="cls-1" d="M157.81,167.15a80.81,80.81,0,0,1,80.81-80.81"/><path class="cls-1" d="M254.49,118.51c0-55.21,45.28-80.08,100.51-80.08s99.51,24.87,99.51,80.08"/><path class="cls-1" d="M686.45,276.71c0,183.26-148.62,331.81-332,331.81S22.55,460,22.55,276.71C22.55,276,686.45,276,686.45,276.71Z"/><path class="cls-1" d="M219.14,593.53v77H488.92v-77"/></svg>